<?xml version="1.0" encoding="UTF-8"?>
<svg version="1.1" xmlns="http://www.w3.org/2000/svg" width="512" height="512">
<path d="M0 0 C9.01318699 6.88040692 15.98473765 16.0528654 18.33984375 27.37109375 C19.95206679 40.82100925 18.27227567 52.60321314 10.2578125 63.71875 C5.68825924 69.4033617 1.12944984 73.43140314 -5.375 76.75 C-4.84132813 76.90855469 -4.30765625 77.06710938 -3.7578125 77.23046875 C10.5787671 81.71995129 20.91048507 88.82826927 29.15234375 101.5859375 C34.1048945 112.2266964 33.99784197 122.45912046 33.8125 133.9375 C33.79741891 135.57355533 33.78373659 137.20962417 33.77148438 138.84570312 C33.73876583 142.81414197 33.68717565 146.78191786 33.625 150.75 C34.69814453 150.72643433 34.69814453 150.72643433 35.79296875 150.70239258 C39.07023039 150.63959253 42.3473649 150.60086697 45.625 150.5625 C46.75035156 150.53736328 47.87570312 150.51222656 49.03515625 150.48632812 C56.54967198 150.42041132 62.24324702 150.92546736 68.69140625 155.08203125 C74.34379655 160.67538875 77.36481529 167.6053399 80.625 174.75 C80.84414063 173.98816406 81.06328125 173.22632813 81.2890625 172.44140625 C85.05563018 160.17709443 91.05896307 150.6721858 102.42578125 144.140625 C104.80232587 142.94394907 107.18471837 141.809663 109.625 140.75 C108.89796875 140.25693359 108.89796875 140.25693359 108.15625 139.75390625 C97.55364224 132.23013267 90.69749875 123.41754781 87.625 110.75 C86.31295819 98.65739579 87.21428014 86.60423036 94.4375 76.4375 C95.48015877 75.19145841 96.54248362 73.96157551 97.625 72.75 C98.10324219 72.15703125 98.58148438 71.5640625 99.07421875 70.953125 C105.99146487 63.07757022 116.84753006 58.2028211 127.19140625 57.51171875 C141.68578924 57.24251711 152.80956482 60.46831187 163.625 70.62890625 C172.87028021 80.49186682 176.2084575 92.06352606 175.9296875 105.3515625 C174.81054386 117.83431845 169.20436869 128.07471687 159.8125 136.3125 C157.80391755 137.92032016 155.77321278 139.31785815 153.625 140.75 C154.32625 141.10191406 155.0275 141.45382813 155.75 141.81640625 C167.72041167 148.04557428 175.92820451 155.14754608 180.1835022 168.29187012 C181.74612826 173.60785896 182.05068627 178.48468775 182.01318359 183.99804688 C182.02106903 185.45380882 182.02106903 185.45380882 182.02911377 186.9389801 C182.0422116 190.11573858 182.03361195 193.29198729 182.0234375 196.46875 C182.02546117 198.69494726 182.02837504 200.92114387 182.03213501 203.14733887 C182.03654454 207.80060166 182.03017145 212.45369105 182.01611328 217.10693359 C181.99902243 223.05160071 182.00887095 228.99586138 182.02683067 234.94051361 C182.03770553 239.53378322 182.03420518 244.12695752 182.0264473 248.7202301 C182.02445552 250.91134185 182.02686835 253.10246243 182.03388596 255.29356384 C182.04156148 258.36325791 182.02981097 261.43230673 182.01318359 264.50195312 C182.01925629 265.39471451 182.02532898 266.28747589 182.03158569 267.20729065 C181.919412 278.46679205 178.18034629 288.56656388 170.62109375 296.98046875 C163.24971131 304.00899619 154.82378524 308.17271027 144.625 308.75 C144.90214844 309.28109375 145.17929687 309.8121875 145.46484375 310.359375 C145.82707031 311.06578125 146.18929688 311.7721875 146.5625 312.5 C146.92214844 313.19609375 147.28179687 313.8921875 147.65234375 314.609375 C150.65102605 321.20888464 150.47264706 328.09061026 148.125 334.875 C145.03052904 341.90590046 139.71570274 346.17499381 132.69938469 349.11100197 C128.82808904 350.30352441 124.94443328 350.13972469 120.92602539 350.09057617 C119.5053476 350.09123329 119.5053476 350.09123329 118.05596924 350.09190369 C114.9446507 350.08982396 111.83387994 350.06653125 108.72265625 350.04296875 C106.55789993 350.0373699 104.39313979 350.03310117 102.2283783 350.03010559 C96.54508881 350.01867963 90.86203121 349.98923165 85.17883301 349.95599365 C79.3738112 349.92524435 73.56875174 349.91158986 67.76367188 349.89648438 C56.38401299 349.86435992 45.00452582 349.81319066 33.625 349.75 C33.63388245 350.48614029 33.64276489 351.22228058 33.6519165 351.98072815 C33.73227086 358.93919372 33.79306999 365.89758938 33.83224869 372.85640049 C33.85306871 376.43352209 33.88128224 380.01025834 33.92675781 383.5871582 C33.97041779 387.04312329 33.99417906 390.49871917 34.00450897 393.95493889 C34.01542916 395.90640832 34.04662308 397.8577305 34.07818604 399.80897522 C34.07991491 406.67993813 33.86866388 411.22558635 29.625 416.75 C24.3688626 421.50555289 20.95723969 421.9049802 14.04785156 421.92700195 C13.15986877 421.93357315 12.27188599 421.94014435 11.35699463 421.94691467 C8.40987061 421.96667143 5.46279763 421.97831607 2.515625 421.98828125 C1.50995232 421.99235678 0.50427963 421.9964323 -0.53186798 422.00063133 C-5.85555314 422.02150305 -11.17921244 422.03579953 -16.50292969 422.04516602 C-22.00210403 422.05622769 -27.50087341 422.09062181 -32.99990463 422.13033772 C-37.22756706 422.15648501 -41.45513278 422.16485623 -45.68286896 422.16844749 C-47.70984886 422.17331898 -49.73682428 422.18494892 -51.76372528 422.20348549 C-54.60290064 422.22783467 -57.44102561 422.22691946 -60.28027344 422.2199707 C-61.53360474 422.23918579 -61.53360474 422.23918579 -62.81225586 422.25878906 C-68.14495342 422.21128273 -71.12981256 421.26132934 -75.375 417.75 C-79.52999969 413.14581115 -80.50136244 410.02488547 -80.48852539 403.90161133 C-80.48844986 402.7005928 -80.48837433 401.49957428 -80.48829651 400.26216125 C-80.48313522 398.96521835 -80.47797394 397.66827545 -80.47265625 396.33203125 C-80.47079077 394.99110466 -80.46936748 393.65017739 -80.46836853 392.30924988 C-80.46455356 388.78290927 -80.45473199 385.25660996 -80.44366455 381.73028564 C-80.4334285 378.13074299 -80.42886621 374.53119365 -80.42382812 370.93164062 C-80.4131088 363.87107687 -80.39604462 356.81054113 -80.375 349.75 C-81.57023788 349.75888245 -82.76547577 349.76776489 -83.99693298 349.7769165 C-95.28135939 349.85813404 -106.56572621 349.91802869 -117.85037899 349.95724869 C-123.65143489 349.97809021 -129.45225412 350.00634544 -135.25317383 350.05175781 C-140.85528948 350.09533755 -146.45717801 350.11916293 -152.05945015 350.12950897 C-154.19281144 350.13687855 -156.32616082 350.15126954 -158.45942497 350.17292023 C-161.45621111 350.20211504 -164.4520683 350.20594924 -167.44897461 350.20410156 C-168.32363876 350.21848267 -169.19830292 350.23286377 -170.09947205 350.24768066 C-177.16502128 350.20078999 -183.12906638 348.36875322 -188.6796875 343.890625 C-194.0054965 337.47845695 -197.00769243 331.61031364 -196.7421875 323.12890625 C-195.95173066 318.00775503 -193.67606301 313.35212602 -191.375 308.75 C-192.40625 308.729375 -193.4375 308.70875 -194.5 308.6875 C-203.01202038 307.61022113 -213.12415974 302.35542121 -218.84765625 295.9765625 C-223.77948287 288.78694312 -228.47104773 280.30422124 -228.52217102 271.432724 C-228.52932632 270.57646423 -228.53648163 269.72020447 -228.54385376 268.83799744 C-228.54654266 267.90653397 -228.54923157 266.9750705 -228.55200195 266.01538086 C-228.55857315 265.02784821 -228.56514435 264.04031555 -228.57191467 263.02285767 C-228.59162906 259.75351889 -228.60330802 256.48422607 -228.61328125 253.21484375 C-228.61735678 252.09588778 -228.6214323 250.9769318 -228.62563133 249.82406807 C-228.64648711 243.89809479 -228.66078931 237.97214461 -228.67016602 232.04614258 C-228.68121141 225.94219439 -228.71559152 219.83861264 -228.75533772 213.73479366 C-228.78155887 209.02740325 -228.7898629 204.3200993 -228.79344749 199.61264229 C-228.79830153 197.36371965 -228.80988153 195.11480056 -228.82848549 192.86594963 C-228.85298676 189.70713685 -228.8518913 186.54926072 -228.8449707 183.39038086 C-228.85778076 182.47308701 -228.87059082 181.55579315 -228.88378906 180.61070251 C-228.79394282 169.2761327 -224.28227958 159.06467817 -216.5625 150.8125 C-211.72909958 146.29093187 -206.39497083 143.42691326 -200.375 140.75 C-200.931875 140.36070312 -201.48875 139.97140625 -202.0625 139.5703125 C-211.87272868 132.37835431 -218.04890857 124.51346459 -221.375 112.75 C-221.56707031 112.10933594 -221.75914062 111.46867187 -221.95703125 110.80859375 C-224.27052573 99.41409288 -221.7841729 86.45691593 -215.375 76.75 C-207.95292818 67.00092615 -198.70477035 59.74403294 -186.375 57.75 C-171.52048572 56.66087064 -159.61106372 59.07288971 -147.921875 68.7890625 C-139.89594655 76.31004843 -134.63468195 85.7835766 -134.0390625 96.94921875 C-133.76314528 110.5807358 -135.64696417 121.52988454 -145.375 131.75 C-152.91916961 139.02208481 -152.91916961 139.02208481 -156.375 140.75 C-155.61316406 141.07871094 -154.85132813 141.40742188 -154.06640625 141.74609375 C-141.61279977 147.48314842 -134.46054338 154.97778284 -129.375 167.75 C-128.64876699 170.07182524 -128.0052014 172.3992022 -127.375 174.75 C-126.95089844 173.82058594 -126.52679688 172.89117187 -126.08984375 171.93359375 C-122.13043621 163.48891095 -118.6809294 156.33914768 -109.96484375 152.0859375 C-104.23455984 150.04634492 -98.37932569 150.42838276 -92.375 150.5625 C-91.21871094 150.57603516 -90.06242188 150.58957031 -88.87109375 150.60351562 C-86.03856996 150.63862956 -83.20703693 150.68781 -80.375 150.75 C-80.39594727 149.75782471 -80.41689453 148.76564941 -80.43847656 147.7434082 C-80.51185595 143.99925651 -80.55714836 140.25516574 -80.59472656 136.51049805 C-80.61462238 134.90166474 -80.64174929 133.29290158 -80.67675781 131.68432617 C-81.02186549 115.39828864 -78.51012837 102.64506972 -67.12109375 90.30859375 C-60.29857732 83.66129443 -52.6466715 79.85919541 -43.375 77.75 C-44.0040625 77.4096875 -44.633125 77.069375 -45.28125 76.71875 C-57.16979139 69.98668439 -65.05781805 61.12258565 -68.94433594 47.7980957 C-71.58466435 35.24156791 -69.29799266 22.97011285 -62.75 12.125 C-55.66532058 2.24187221 -46.74072315 -3.93470959 -34.92578125 -6.85546875 C-22.49461248 -8.77820695 -10.56868902 -6.97661194 0 0 Z " fill="#000101" transform="translate(279.375,90.25)"/>
<path d="M0 0 C0.64423672 -0.00523668 1.28847344 -0.01047336 1.95223248 -0.01586872 C4.11479341 -0.03089177 6.27711822 -0.03157436 8.43972778 -0.03224182 C9.98869223 -0.03986177 11.53765288 -0.04828898 13.08660889 -0.0574646 C17.29738374 -0.0794326 21.50808596 -0.08821155 25.71891165 -0.09329104 C28.34904564 -0.09693184 30.97916054 -0.10317045 33.60928726 -0.11029243 C42.78324471 -0.13479474 51.95714554 -0.14784055 61.13113403 -0.15138245 C69.6853259 -0.15501855 78.23915915 -0.18491708 86.79324138 -0.22678703 C94.13515769 -0.26146515 101.47695501 -0.27693045 108.81895268 -0.27762848 C113.20501195 -0.27842214 117.59070603 -0.28720102 121.97668076 -0.31562614 C126.10216347 -0.34176468 130.22697714 -0.34403605 134.35250473 -0.3279705 C135.86622575 -0.32615263 137.37998487 -0.3328774 138.89362335 -0.34878922 C140.96161446 -0.36920237 143.02725405 -0.35873116 145.09521484 -0.34057617 C146.25185575 -0.3425875 147.40849667 -0.34459883 148.6001873 -0.3466711 C152.61768263 0.46459665 154.08425401 2.17562849 156.67459106 5.27415466 C158.1567688 7.6391449 158.1567688 7.6391449 159.35818481 10.08274841 C159.80830933 10.98879822 160.25843384 11.89484802 160.72219849 12.82835388 C161.18086304 13.77984314 161.63952759 14.7313324 162.11209106 15.71165466 C162.59073608 16.68634705 163.0693811 17.66103943 163.56253052 18.66526794 C167.18412817 26.10001071 170.57387342 33.60740134 173.67459106 41.27415466 C173.04552856 41.37212341 172.41646606 41.47009216 171.76834106 41.57102966 C163.03182244 43.09728894 156.74226079 45.35278897 150.99880981 52.29759216 C146.15540547 59.52698035 145.78601285 65.74189289 146.67459106 74.27415466 C147.65248681 77.52921608 148.98941946 80.33432975 150.67459106 83.27415466 C150.96591919 83.97282654 151.25724731 84.67149841 151.55740356 85.39134216 C152.96085822 87.75660491 154.20894126 88.11960767 156.67459106 89.27415466 C157.58736816 89.7933548 157.58736816 89.7933548 158.51858521 90.32304382 C163.49098628 93.07046504 167.47354572 93.87396483 173.11209106 93.88352966 C173.87763306 93.90006592 174.64317505 93.91660217 175.43191528 93.93363953 C177.8462253 93.98172573 180.25990751 94.00340084 182.67459106 94.02415466 C184.32436157 94.05234756 185.97410333 94.08227958 187.62380981 94.11399841 C191.64068508 94.18747281 195.65721985 94.23728638 199.67459106 94.27415466 C208.46104566 112.33619438 217.08248505 130.46195317 225.47634888 148.70994568 C226.21548573 150.29168048 226.98729551 151.85916472 227.81033325 153.39891052 C229.21959793 156.45669639 229.0284851 158.97114365 228.67459106 162.27415466 C226.80750602 164.63912906 225.35397676 165.93446182 222.67459106 167.27415466 C219.56955164 167.41487449 216.48569314 167.49477483 213.37893677 167.53050232 C212.41453171 167.54510498 211.45012665 167.55970764 210.45649719 167.57475281 C201.557489 167.70076006 192.65758443 167.76949428 183.75787067 167.8225956 C177.77705663 167.85837641 171.79758547 167.91172687 165.81741333 168.00804138 C160.03779865 168.10084964 154.25937303 168.14951468 148.4790554 168.16698837 C146.27693527 168.18108541 144.07485716 168.21073124 141.87316322 168.25629044 C124.5776134 168.59669814 124.5776134 168.59669814 119.86975098 165.32487488 C118.10651173 163.04230537 116.95412508 160.84432811 115.67459106 158.27415466 C113.19195917 155.9519269 110.54359837 154.09026414 107.67459106 152.27415466 C107.08291138 151.89517029 106.49123169 151.51618591 105.88162231 151.12571716 C99.6498358 147.59127108 92.64601082 146.56660889 85.67459106 145.27415466 C87.70246493 143.2462808 89.39962581 142.27996135 91.92459106 140.96165466 C102.02311598 135.36391002 108.18300459 127.42815024 112.08792114 116.49412537 C113.17845451 112.36752533 113.20467832 108.27147234 113.17459106 104.02415466 C113.16959595 103.09901062 113.16460083 102.17386658 113.15945435 101.22068787 C112.86137101 89.48956667 108.46063311 79.82181115 100.00662231 71.66477966 C89.97455781 63.36533184 78.79928573 60.04289476 66.01443481 60.76243591 C55.25173393 61.79363527 46.23002139 66.6366001 38.67459106 74.27415466 C29.77052465 85.40423768 26.30201575 97.06729267 27.67459106 111.27415466 C30.82093817 123.53545582 37.18736633 134.14928094 48.11990356 140.75071716 C50.28622787 141.96630353 52.4640727 143.14132666 54.67459106 144.27415466 C51.63934687 146.29765079 49.05062095 147.22702171 45.61209106 148.39915466 C38.67775836 151.03234782 31.49054459 154.67707567 27.4829874 161.21946239 C23.98712589 166.81922921 23.98712589 166.81922921 20.53089714 168.01716042 C17.92510416 168.29397808 15.42126265 168.32156759 12.80130005 168.26170349 C11.33436707 168.27550301 11.33436707 168.27550301 9.83779907 168.2895813 C6.61414773 168.30945415 3.39410014 168.27163986 0.17068481 168.23118591 C-2.07320554 168.22895569 -4.31710031 168.22954049 -6.56098938 168.2328186 C-11.25957049 168.23107648 -15.95692908 168.20198156 -20.65524292 168.15232849 C-26.67707692 168.08992554 -32.69724381 168.08505742 -38.71933079 168.09930897 C-43.35113119 168.10572014 -47.98255475 168.08696595 -52.61427116 168.06004906 C-54.83461219 168.04917143 -57.05499568 168.04489268 -59.27536201 168.04732704 C-62.37820786 168.04589976 -65.47900306 168.01189539 -68.58151245 167.96873474 C-69.49853439 167.97414276 -70.41555634 167.97955078 -71.36036682 167.98512268 C-75.81648672 167.88825511 -77.75146717 167.70864213 -81.40383911 164.94371033 C-83.94325917 161.41580147 -83.9069941 159.54675861 -83.32540894 155.27415466 C-82.15475464 152.07810974 -82.15475464 152.07810974 -80.50119019 148.79368591 C-80.20315994 148.19075714 -79.9051297 147.58782837 -79.59806824 146.96662903 C-78.62343299 145.00035241 -77.63058506 143.04387523 -76.63790894 141.08665466 C-75.61110005 139.02391808 -74.58954788 136.95863559 -73.56845093 134.89306641 C-72.86949061 133.47944143 -72.16903742 132.06655367 -71.46713257 130.65438843 C-67.82787972 123.3184225 -64.37625301 115.89910508 -60.95040894 108.46165466 C-60.39780396 107.26451843 -59.84519897 106.0673822 -59.27584839 104.83396912 C-58.31405535 102.74975305 -57.35334897 100.66503479 -56.39425659 98.57957458 C-55.72453712 97.13504261 -55.0374759 95.69828859 -54.32540894 94.27415466 C-53.34781616 94.27004578 -52.37022339 94.26593689 -51.36300659 94.26170349 C-47.69094103 94.23971798 -44.01991778 94.18523326 -40.34835815 94.12156677 C-38.76773161 94.09855419 -37.18695537 94.08403084 -35.60617065 94.07859802 C-25.92571715 94.03879856 -18.74693471 93.5367796 -10.32540894 88.27415466 C-9.33540894 87.94415466 -8.34540894 87.61415466 -7.32540894 87.27415466 C-6.21171822 85.43290335 -6.21171822 85.43290335 -5.32540894 83.27415466 C-4.97220581 82.65798279 -4.61900269 82.04181091 -4.25509644 81.40696716 C-0.66765971 74.57755057 -0.32440282 67.86072736 -1.32540894 60.27415466 C-3.44410632 53.82431485 -7.6492018 48.92902095 -13.32540894 45.27415466 C-18.21032609 42.81724367 -22.91117377 41.98347153 -28.32540894 41.27415466 C-23.82118946 30.91972183 -19.1650459 20.66797242 -13.95040894 10.64915466 C-13.53420288 9.83857605 -13.11799683 9.02799744 -12.68917847 8.19285583 C-12.29327515 7.44366882 -11.89737183 6.69448181 -11.48947144 5.92259216 C-11.14351929 5.26436462 -10.79756714 4.60613708 -10.44113159 3.92796326 C-7.67402738 -0.17364811 -4.53092708 0.01822939 0 0 Z " fill="#FC4545" transform="translate(183.32540893554688,256.72584533691406)"/>
<path d="M0 0 C1.53767532 -0.01029488 1.53767532 -0.01029488 3.10641479 -0.02079773 C6.48644966 -0.03906153 9.86602025 -0.03522907 13.24609375 -0.02954102 C15.59969229 -0.03410262 17.9532895 -0.03940813 20.30688477 -0.04542542 C25.23622046 -0.05435543 30.16539413 -0.05193406 35.09472656 -0.04199219 C41.40990406 -0.03049599 47.72452296 -0.05072513 54.03962708 -0.07990932 C58.89867705 -0.09825801 63.75759278 -0.09798159 68.6166687 -0.0922718 C70.94506616 -0.09211846 73.27347266 -0.09817323 75.60183716 -0.11056328 C78.85731039 -0.12544772 82.11174663 -0.11481439 85.3671875 -0.09765625 C86.80745804 -0.1121582 86.80745804 -0.1121582 88.27682495 -0.12695312 C95.03705155 -0.05237917 98.42853005 1.24176995 103.328125 6.00170898 C107.19659642 10.8534708 107.81096978 13.92982308 107.8605957 20.04345703 C107.8671669 20.71379471 107.8737381 21.38413239 107.88050842 22.07478333 C107.90021234 24.29261393 107.91189943 26.5103768 107.921875 28.72827148 C107.92595053 29.48781443 107.93002605 30.24735737 107.93422508 31.02991676 C107.95507663 35.05265657 107.96938048 39.07536239 107.97875977 43.09814453 C107.98980316 47.23961939 108.02418114 51.38055384 108.06393147 55.52183819 C108.09016588 58.7176051 108.09845776 61.91324478 108.10204124 65.10910988 C108.10689213 66.6348414 108.11846319 68.16056781 108.13707924 69.68619347 C108.33037945 86.58208081 108.33037945 86.58208081 102.20063782 92.94291687 C98.30963942 96.38827178 95.30060072 97.55133428 90.203125 97.41894531 C89.29788086 97.40015823 88.39263672 97.38137115 87.45996094 97.36201477 C86.48188477 97.34108261 85.50380859 97.32015045 84.49609375 97.29858398 C81.32438604 97.27453822 78.15272565 97.26106052 74.98095703 97.24755859 C72.79676133 97.2270201 70.61265506 97.18690709 68.42919922 97.12646484 C55.43236809 96.25520949 55.43236809 96.25520949 43.86889648 100.99951172 C41.02967461 103.8377089 38.85886075 107.03382088 36.68359375 110.40405273 C35.39738035 111.90613308 34.09044532 113.39127375 32.74609375 114.84155273 C30.92332885 116.92347852 29.26127424 118.97994297 27.62109375 121.21655273 C24.31013606 124.95473077 21.1059774 126.25165449 16.18359375 126.77905273 C10.38455629 126.15772729 6.42903994 123.84310008 2.68359375 119.40405273 C1.7422212 116.57993509 1.56633993 114.87487242 1.5859375 111.95483398 C1.59077148 110.68349609 1.59077148 110.68349609 1.59570312 109.38647461 C1.60408203 108.50540039 1.61246094 107.62432617 1.62109375 106.71655273 C1.62560547 105.82387695 1.63011719 104.93120117 1.63476562 104.01147461 C1.64654392 101.80893287 1.66299211 99.60652674 1.68359375 97.40405273 C0.91015625 97.46206055 0.13671875 97.52006836 -0.66015625 97.57983398 C-6.93582326 97.851676 -11.52920504 97.74715528 -16.6953125 93.96655273 C-21.09664715 89.72430247 -23.17143803 84.54986155 -23.45011902 78.50248718 C-23.45393082 77.37776505 -23.45774261 76.25304291 -23.46166992 75.09423828 C-23.46804977 73.81578537 -23.47442963 72.53733246 -23.48100281 71.22013855 C-23.48253184 69.82701658 -23.48364561 68.4338941 -23.484375 67.04077148 C-23.48759039 65.60594144 -23.49095468 64.17111172 -23.49446106 62.73628235 C-23.50044443 59.72945395 -23.50230183 56.72265425 -23.50170898 53.71582031 C-23.50160753 49.87599257 -23.5152464 46.03635041 -23.53248119 42.19656658 C-23.54363937 39.23245917 -23.54562701 36.26839605 -23.54509926 33.30426979 C-23.54627413 31.88938573 -23.55066809 30.47450032 -23.55843163 29.05963707 C-23.56830622 27.0737995 -23.5640701 25.08790723 -23.55932617 23.10205078 C-23.56075119 21.97494186 -23.56217621 20.84783295 -23.56364441 19.68656921 C-23.04696309 12.82672625 -21.19277008 8.28041656 -16.31640625 3.40405273 C-10.94870407 -0.09346469 -6.19076304 -0.02902438 0 0 Z " fill="#FBD100" transform="translate(104.31640625,-0.404052734375)"/>
<path d="M0 0 C1.53307549 -0.01292336 1.53307549 -0.01292336 3.09712219 -0.02610779 C6.46222548 -0.04873643 9.82649387 -0.04203409 13.19165039 -0.03295898 C15.5390294 -0.03819601 17.88640631 -0.04447278 20.23377991 -0.05174255 C25.14879268 -0.06214116 30.06351584 -0.05759289 34.97851562 -0.04296875 C41.26781216 -0.0257846 47.55619479 -0.04927562 53.84538937 -0.08445835 C58.69167603 -0.10645017 63.53774464 -0.10498639 68.38406563 -0.09669304 C70.70243901 -0.09587446 73.02082855 -0.10271988 75.3391552 -0.11746407 C78.58474281 -0.13494144 81.82869597 -0.12033904 85.07421875 -0.09765625 C86.50134689 -0.11519455 86.50134689 -0.11519455 87.95730591 -0.13308716 C94.31422162 -0.04298654 98.83200281 1.1838299 103.60180664 5.53344727 C107.27517027 9.92718892 108.10739075 14.25128383 108.13525391 19.90234375 C108.14386948 20.60252625 108.15248505 21.30270874 108.16136169 22.02410889 C108.18389754 24.31797208 108.17730636 26.61060111 108.16821289 28.90454102 C108.17345422 30.51205301 108.17973256 32.11956192 108.18699646 33.72706604 C108.19737791 37.08853678 108.19287232 40.4495836 108.17822266 43.81103516 C108.16104234 48.10286223 108.18453128 52.39334949 108.21971226 56.68502712 C108.24175261 60.00267786 108.24022881 63.32001131 108.23194695 66.63771248 C108.23113096 68.21924369 108.2379265 69.80079903 108.25271797 71.38226128 C108.38094155 87.57212013 108.38094155 87.57212013 102.60180664 93.53344727 C96.65005682 98.39201855 91.06647621 97.97470852 83.60180664 97.53344727 C83.65401367 99.3780957 83.65401367 99.3780957 83.70727539 101.26000977 C83.73542709 102.89280854 83.76272577 104.52562217 83.78930664 106.15844727 C83.81444336 106.96668945 83.83958008 107.77493164 83.86547852 108.60766602 C83.92751373 113.69455348 83.43375519 117.12744655 80.60180664 121.53344727 C76.9501527 124.91122716 74.34327396 126.36599849 69.35180664 126.84594727 C62.1619534 126.24679283 57.65574982 122.0539668 53.10180664 116.78344727 C52.39797852 115.99164063 52.39797852 115.99164063 51.67993164 115.18383789 C50.31191641 113.64106248 48.95653508 112.08788492 47.60180664 110.53344727 C46.89024414 109.73422852 46.17868164 108.93500977 45.44555664 108.11157227 C40.85324228 102.93548913 40.85324228 102.93548913 39.3026886 100.45617676 C37.77602721 98.35477458 37.77602721 98.35477458 35.45915222 98.04138184 C34.63119644 98.04456421 33.80324066 98.04774658 32.95019531 98.05102539 C32.00879196 98.04421753 31.06738861 98.03740967 30.09745789 98.03039551 C28.57400505 98.04737488 28.57400505 98.04737488 27.01977539 98.06469727 C25.44937248 98.05412292 25.44937248 98.05412292 23.84724426 98.04333496 C19.36385586 98.01378915 14.88089817 98.03046155 10.39746094 98.04272461 C7.12546851 98.04510753 3.85418041 98.02416847 0.58227539 98.00219727 C-0.42728714 98.01351685 -1.43684967 98.02483643 -2.477005 98.03649902 C-9.50303853 97.9861948 -12.95472486 96.87876465 -18.04272461 91.93579102 C-21.95810483 87.02519709 -22.5272963 83.90002995 -22.59106445 77.71044922 C-22.59924194 77.0206044 -22.60741943 76.33075958 -22.61584473 75.62001038 C-22.64065243 73.33725846 -22.65720536 71.05456868 -22.67163086 68.77172852 C-22.67695454 67.99012045 -22.68227821 67.20851238 -22.68776321 66.40321922 C-22.71447842 62.26377723 -22.73385598 58.12436518 -22.74829102 53.98486328 C-22.76161337 50.56759777 -22.7894358 47.1509318 -22.83032227 43.73388672 C-22.87977971 39.60008944 -22.90442817 35.46683461 -22.9115181 31.33275414 C-22.91820907 29.76234197 -22.9333749 28.19194088 -22.95740891 26.62169838 C-23.16967939 11.91044859 -23.16967939 11.91044859 -19.15713501 6.09660339 C-13.00401555 0.62837971 -7.97460088 -0.05458248 0 0 Z " fill="#FBD100" transform="translate(318.398193359375,-0.533447265625)"/>
<path d="M0 0 C1.57404416 -0.01650925 3.14801491 -0.04373301 4.72167969 -0.08203125 C21.52734749 -0.4883493 21.52734749 -0.4883493 27.68676758 5.35009766 C28.34290039 5.93533203 28.9990332 6.52056641 29.67504883 7.12353516 C30.11204102 7.65205078 30.5490332 8.18056641 30.99926758 8.72509766 C31.44915039 9.24845703 31.8990332 9.77181641 32.36254883 10.31103516 C36.34594194 16.44475553 37.12892783 21.53041304 37.09082031 28.69091797 C37.09768356 29.60086014 37.10454681 30.51080231 37.11161804 31.44831848 C37.12984481 34.44178089 37.12605316 37.43471691 37.12036133 40.42822266 C37.12492625 42.52179127 37.13023275 44.61535838 37.13624573 46.70892334 C37.14516965 51.09344576 37.14276318 55.47778598 37.1328125 59.86230469 C37.12134483 65.45842584 37.14150453 71.05391391 37.17072964 76.64995193 C37.18915352 80.97391708 37.18878649 85.29773241 37.18309212 89.62172699 C37.18293955 91.68363073 37.18893028 93.74554505 37.20138359 95.80741119 C37.32813718 120.24099135 37.32813718 120.24099135 29.56176758 129.28759766 C24.16860553 134.08151947 18.19496121 136.4547176 11.01049805 136.3894043 C10.20063446 136.3837294 9.39077087 136.3780545 8.55636597 136.37220764 C7.9393985 136.36491135 7.32243103 136.35761505 6.68676758 136.35009766 C4.08975886 131.16140118 1.5084405 125.96531009 -1.05859375 120.76171875 C-1.93419417 118.99234049 -2.81405776 117.22506531 -3.69824219 115.45996094 C-4.96788106 112.92353471 -6.22203436 110.37995914 -7.47338867 107.83447266 C-7.87227798 107.04578796 -8.2711673 106.25710327 -8.68214417 105.44451904 C-9.04259323 104.70405334 -9.4030423 103.96358765 -9.77441406 103.20068359 C-10.09640274 102.55226501 -10.41839142 101.90384644 -10.75013733 101.23577881 C-11.45318211 98.88143705 -11.16177877 97.63362222 -10.31323242 95.35009766 C-8.6550293 93.3671875 -8.6550293 93.3671875 -6.53198242 91.31103516 C-5.77272461 90.56595703 -5.0134668 89.82087891 -4.23120117 89.05322266 C-3.03430664 87.90080078 -3.03430664 87.90080078 -1.81323242 86.72509766 C-0.23824736 85.19336743 1.33477189 83.65961244 2.90551758 82.12353516 C3.60612305 81.44726074 4.30672852 80.77098633 5.02856445 80.07421875 C7.47157771 77.53408924 7.67398006 76.52592602 7.93676758 72.91259766 C7.94718291 69.50460405 7.94718291 69.50460405 6.62426758 67.41259766 C3.34492633 65.61424923 1.37871235 65.74486081 -2.31323242 66.35009766 C-6.77072045 69.07355144 -10.04895692 72.93363927 -13.03198242 77.15478516 C-17.52402162 83.03758315 -21.52898745 87.5962167 -29.04858398 89.09423828 C-33.34613782 89.55758408 -37.61995075 89.60833103 -41.93823242 89.53759766 C-42.65640137 89.52872528 -43.37457031 89.51985291 -44.11450195 89.51071167 C-57.29238197 89.2297835 -57.29238197 89.2297835 -62.31323242 84.35009766 C-63.42927806 82.11800637 -63.64430777 80.5832901 -63.81323242 78.10009766 C-63.88541992 77.35244141 -63.95760742 76.60478516 -64.03198242 75.83447266 C-63.03443011 72.38641142 -61.31745766 70.75857692 -58.53735352 68.54589844 C-53.63080592 65.90788855 -47.90067938 66.81159978 -42.49487305 67.02783203 C-37.26642008 67.05305544 -34.08555866 66.72607489 -30.05151367 63.23291016 C-28.7848259 61.95878744 -27.5381202 60.6644555 -26.31323242 59.35009766 C-25.13210072 58.21725373 -23.94732845 57.08819053 -22.75854492 55.96337891 C-21.64920811 54.86570568 -20.54240679 53.76546376 -19.43823242 52.66259766 C-18.58745117 51.83018555 -18.58745117 51.83018555 -17.71948242 50.98095703 C-13.80252395 47.15734297 -13.80252395 47.15734297 -11.31323242 42.35009766 C-11.4523722 38.94117316 -11.72914555 37.04650892 -13.93823242 34.41259766 C-17.57394951 32.78609264 -19.51357936 33.19088147 -23.31323242 34.35009766 C-25.37259064 36.05875329 -27.14402023 37.8633298 -28.93041992 39.85400391 C-29.38674805 40.34771484 -29.84307617 40.84142578 -30.31323242 41.35009766 C-30.64323242 41.35009766 -30.97323242 41.35009766 -31.31323242 41.35009766 C-31.460517 37.72553752 -31.54795468 34.10176245 -31.62573242 30.47509766 C-31.66762695 29.46189453 -31.70952148 28.44869141 -31.75268555 27.40478516 C-31.89033827 18.81525521 -29.96961491 12.19476562 -23.96166992 5.87744141 C-23.21143555 5.35279297 -22.46120117 4.82814453 -21.68823242 4.28759766 C-20.9328418 3.73974609 -20.17745117 3.19189453 -19.39916992 2.62744141 C-13.67356689 -0.87868629 -6.5075873 0.04993897 0 0 Z " fill="#0491F9" transform="translate(408.313232421875,246.64990234375)"/>
<path d="M0 0 C2.24592771 -0.01181813 4.48903322 -0.06094588 6.734375 -0.11157227 C15.0269437 -0.2062226 22.28227602 0.21573968 29.1484375 5.42553711 C34.28617818 10.8908169 37.42915847 16.30101061 37.34375 23.94506836 C37.33730469 24.96665039 37.33085937 25.98823242 37.32421875 27.04077148 C37.29908203 28.62341797 37.29908203 28.62341797 37.2734375 30.23803711 C37.26441406 31.3124707 37.25539063 32.3869043 37.24609375 33.49389648 C37.22259056 36.13800565 37.18973325 38.78165583 37.1484375 41.42553711 C36.44267578 40.8106543 36.44267578 40.8106543 35.72265625 40.18334961 C35.10003906 39.64452148 34.47742188 39.10569336 33.8359375 38.55053711 C33.22105469 38.01686523 32.60617188 37.48319336 31.97265625 36.93334961 C28.31908965 33.90812295 28.31908965 33.90812295 23.6484375 33.55053711 C20.18488353 34.14356307 20.18488353 34.14356307 18.1484375 36.11303711 C16.68613956 39.4946011 16.93467038 40.91909875 18.1484375 44.42553711 C20.18776603 47.37648602 22.64301804 49.86663579 25.1484375 52.42553711 C25.92598389 53.22362793 25.92598389 53.22362793 26.71923828 54.0378418 C34.35869656 63.01314787 34.35869656 63.01314787 44.76171875 66.63647461 C45.68017578 66.66483398 46.59863281 66.69319336 47.54492188 66.72241211 C49.47702732 66.77417649 51.40934628 66.8185408 53.34179688 66.85522461 C62.13576193 67.15020038 62.13576193 67.15020038 66.1484375 70.42553711 C66.73753906 70.89217773 67.32664062 71.35881836 67.93359375 71.83959961 C69.96151632 74.48698405 69.61272311 76.97821902 69.5078125 80.19897461 C68.97585525 83.4947967 67.57680409 85.20531622 65.1484375 87.42553711 C55.46357522 90.65382454 41.09272189 91.51894694 31.1484375 88.42553711 C23.1524185 84.29807655 17.17363855 76.44538573 11.8112793 69.46679688 C10.30554036 67.33283531 10.30554036 67.33283531 8.1484375 66.42553711 C3.50562035 66.01673145 3.50562035 66.01673145 -0.7890625 67.48803711 C-2.58741092 70.76737835 -2.45679935 72.73359234 -1.8515625 76.42553711 C0.84057382 80.67435089 4.68613167 83.99397371 8.3203125 87.42553711 C9.14257324 88.21504761 9.14257324 88.21504761 9.98144531 89.02050781 C11.08090841 90.07085898 12.19474945 91.10639024 13.32324219 92.12548828 C14.8671875 93.59350586 14.8671875 93.59350586 17.1484375 96.42553711 C16.88725409 101.18797799 14.41441905 105.36900545 12.33203125 109.57006836 C11.95611343 110.33985519 11.58019562 111.10964203 11.19288635 111.90275574 C9.99598931 114.3505481 8.79109609 116.79430341 7.5859375 119.23803711 C6.77095297 120.90118827 5.95649384 122.564597 5.14257812 124.22827148 C3.15060608 128.29703597 1.15145543 132.3621998 -0.8515625 136.42553711 C-9.82592182 136.74023521 -15.98930525 135.71200073 -22.9296875 129.59350586 C-29.5680704 122.5227913 -31.30388207 115.29559701 -31.27148438 105.86352539 C-31.27995392 104.94207733 -31.28842346 104.02062927 -31.29714966 103.07125854 C-31.32041716 100.04597916 -31.32154424 97.02121145 -31.3203125 93.99584961 C-31.32742029 91.87889404 -31.33512019 89.76194039 -31.34338379 87.64498901 C-31.35680513 83.21517579 -31.3584079 78.78554072 -31.35253906 74.35571289 C-31.34664558 68.69776388 -31.37723167 63.04067371 -31.41765594 57.3828907 C-31.44358945 53.01263883 -31.4464052 48.64259222 -31.44276428 44.27227402 C-31.44445026 42.18720212 -31.45404207 40.10212021 -31.47190857 38.01712418 C-31.63867891 16.15023104 -31.63867891 16.15023104 -23.75390625 6.98803711 C-23.10550781 6.47241211 -22.45710938 5.95678711 -21.7890625 5.42553711 C-20.81259766 4.62116211 -20.81259766 4.62116211 -19.81640625 3.80053711 C-13.61778855 -0.53726295 -7.3192076 0.01820305 0 0 Z " fill="#0491F9" transform="translate(97.8515625,246.574462890625)"/>
<path d="M0 0 C1.53767532 -0.01029488 1.53767532 -0.01029488 3.10641479 -0.02079773 C6.48644966 -0.03906153 9.86602025 -0.03522907 13.24609375 -0.02954102 C15.59969229 -0.03410262 17.9532895 -0.03940813 20.30688477 -0.04542542 C25.23622046 -0.05435543 30.16539413 -0.05193406 35.09472656 -0.04199219 C41.40990406 -0.03049599 47.72452296 -0.05072513 54.03962708 -0.07990932 C58.89867705 -0.09825801 63.75759278 -0.09798159 68.6166687 -0.0922718 C70.94506616 -0.09211846 73.27347266 -0.09817323 75.60183716 -0.11056328 C78.85731039 -0.12544772 82.11174663 -0.11481439 85.3671875 -0.09765625 C86.80745804 -0.1121582 86.80745804 -0.1121582 88.27682495 -0.12695312 C95.03705155 -0.05237917 98.42853005 1.24176995 103.328125 6.00170898 C107.19659642 10.8534708 107.81096978 13.92982308 107.8605957 20.04345703 C107.8671669 20.71379471 107.8737381 21.38413239 107.88050842 22.07478333 C107.90021234 24.29261393 107.91189943 26.5103768 107.921875 28.72827148 C107.92595053 29.48781443 107.93002605 30.24735737 107.93422508 31.02991676 C107.95507663 35.05265657 107.96938048 39.07536239 107.97875977 43.09814453 C107.98980316 47.23961939 108.02418114 51.38055384 108.06393147 55.52183819 C108.09016588 58.7176051 108.09845776 61.91324478 108.10204124 65.10910988 C108.10689213 66.6348414 108.11846319 68.16056781 108.13707924 69.68619347 C108.33037945 86.58208081 108.33037945 86.58208081 102.20063782 92.94291687 C98.30963942 96.38827178 95.30060072 97.55133428 90.203125 97.41894531 C89.29788086 97.40015823 88.39263672 97.38137115 87.45996094 97.36201477 C86.48188477 97.34108261 85.50380859 97.32015045 84.49609375 97.29858398 C81.32438604 97.27453822 78.15272565 97.26106052 74.98095703 97.24755859 C72.79676133 97.2270201 70.61265506 97.18690709 68.42919922 97.12646484 C55.43236809 96.25520949 55.43236809 96.25520949 43.86889648 100.99951172 C41.02967461 103.8377089 38.85886075 107.03382088 36.68359375 110.40405273 C35.39738035 111.90613308 34.09044532 113.39127375 32.74609375 114.84155273 C30.92332885 116.92347852 29.26127424 118.97994297 27.62109375 121.21655273 C24.31013606 124.95473077 21.1059774 126.25165449 16.18359375 126.77905273 C10.38455629 126.15772729 6.42903994 123.84310008 2.68359375 119.40405273 C1.7422212 116.57993509 1.56633993 114.87487242 1.5859375 111.95483398 C1.59077148 110.68349609 1.59077148 110.68349609 1.59570312 109.38647461 C1.60408203 108.50540039 1.61246094 107.62432617 1.62109375 106.71655273 C1.62560547 105.82387695 1.63011719 104.93120117 1.63476562 104.01147461 C1.64654392 101.80893287 1.66299211 99.60652674 1.68359375 97.40405273 C0.91015625 97.46206055 0.13671875 97.52006836 -0.66015625 97.57983398 C-6.93582326 97.851676 -11.52920504 97.74715528 -16.6953125 93.96655273 C-21.09664715 89.72430247 -23.17143803 84.54986155 -23.45011902 78.50248718 C-23.45393082 77.37776505 -23.45774261 76.25304291 -23.46166992 75.09423828 C-23.46804977 73.81578537 -23.47442963 72.53733246 -23.48100281 71.22013855 C-23.48253184 69.82701658 -23.48364561 68.4338941 -23.484375 67.04077148 C-23.48759039 65.60594144 -23.49095468 64.17111172 -23.49446106 62.73628235 C-23.50044443 59.72945395 -23.50230183 56.72265425 -23.50170898 53.71582031 C-23.50160753 49.87599257 -23.5152464 46.03635041 -23.53248119 42.19656658 C-23.54363937 39.23245917 -23.54562701 36.26839605 -23.54509926 33.30426979 C-23.54627413 31.88938573 -23.55066809 30.47450032 -23.55843163 29.05963707 C-23.56830622 27.0737995 -23.5640701 25.08790723 -23.55932617 23.10205078 C-23.56075119 21.97494186 -23.56217621 20.84783295 -23.56364441 19.68656921 C-23.04696309 12.82672625 -21.19277008 8.28041656 -16.31640625 3.40405273 C-10.94870407 -0.09346469 -6.19076304 -0.02902438 0 0 Z M-6.31640625 17.40405273 C-6.41566398 19.36229971 -6.44440039 21.3241517 -6.44580078 23.28491211 C-6.44895294 24.54291626 -6.4521051 25.80092041 -6.45535278 27.0970459 C-6.453563 28.48063186 -6.45151205 29.86421751 -6.44921875 31.24780273 C-6.44989184 32.65645362 -6.4508619 34.0651044 -6.45211792 35.47375488 C-6.45359467 38.42953596 -6.45144108 41.38528687 -6.44677734 44.34106445 C-6.44108006 48.13779858 -6.44435918 51.93446202 -6.45034981 55.73119354 C-6.45395604 58.64101701 -6.45281655 61.55082361 -6.45022202 64.46064758 C-6.44955292 65.86094674 -6.45038057 67.26124741 -6.45270157 68.6615448 C-6.45522908 70.61542737 -6.45069658 72.56931529 -6.44580078 74.52319336 C-6.44500519 75.63714478 -6.44420959 76.75109619 -6.44338989 77.89880371 C-6.60009997 80.34382734 -6.60009997 80.34382734 -5.31640625 81.40405273 C-1.82330299 81.65094747 1.66901393 81.78841044 5.16796875 81.92749023 C9.9292085 82.57290273 12.443091 83.86232415 15.453125 87.60327148 C17.00181428 91.12838328 17.24411796 94.42541855 17.37109375 98.21655273 C17.42233398 99.25585938 17.42233398 99.25585938 17.47460938 100.31616211 C17.55645719 102.01158123 17.6217174 103.70778732 17.68359375 105.40405273 C19.76245444 105.63563286 19.76245444 105.63563286 21.05859375 104.07592773 C21.59484375 103.44170898 22.13109375 102.80749023 22.68359375 102.15405273 C23.29976562 101.4334668 23.9159375 100.71288086 24.55078125 99.97045898 C26.11080477 98.09328783 27.65559809 96.20343055 29.19140625 94.30639648 C29.62453125 93.77498047 30.05765625 93.24356445 30.50390625 92.69604492 C31.76102685 91.15005006 33.00768317 89.59556418 34.25390625 88.04077148 C38.1530667 83.80936746 40.98365834 82.25564616 46.73339844 81.98754883 C48.77389366 81.95296381 50.81469038 81.93385572 52.85546875 81.92749023 C53.93362854 81.91191071 55.01178833 81.89633118 56.12261963 81.88027954 C59.55960399 81.8328091 62.9963852 81.80500118 66.43359375 81.77905273 C69.88494268 81.74260664 73.33617527 81.70206152 76.78741455 81.65640259 C78.93411455 81.62909544 81.0809003 81.60777948 83.22772217 81.59286499 C84.19252502 81.58260284 85.15732788 81.5723407 86.15136719 81.56176758 C87.00454529 81.55527191 87.85772339 81.54877625 88.73675537 81.54208374 C90.68869277 81.61739632 90.68869277 81.61739632 91.68359375 80.40405273 C91.78285148 78.44580576 91.81158789 76.48395376 91.81298828 74.52319336 C91.81771652 72.63618713 91.81771652 72.63618713 91.82254028 70.71105957 C91.8207505 69.32747361 91.81869955 67.94388796 91.81640625 66.56030273 C91.81707934 65.15165185 91.8180494 63.74300107 91.81930542 62.33435059 C91.82078217 59.37856951 91.81862858 56.4228186 91.81396484 53.46704102 C91.80826756 49.67030689 91.81154668 45.87364345 91.81753731 42.07691193 C91.82114354 39.16708845 91.82000405 36.25728185 91.81740952 33.34745789 C91.81674042 31.94715873 91.81756807 30.54685806 91.81988907 29.14656067 C91.82241658 27.1926781 91.81788408 25.23879018 91.81298828 23.28491211 C91.81219269 22.17096069 91.81139709 21.05700928 91.81057739 19.90930176 C91.96728747 17.46427813 91.96728747 17.46427813 90.68359375 16.40405273 C87.70598005 16.30344003 84.75152208 16.26790381 81.7734375 16.2746582 C80.83855499 16.27290588 79.90367249 16.27115356 78.94046021 16.26934814 C75.83398613 16.264928 72.72756846 16.26786819 69.62109375 16.27124023 C67.47257476 16.27056724 65.32405584 16.26959726 63.17553711 16.26834106 C58.66617103 16.26686387 54.15682472 16.26901934 49.64746094 16.27368164 C43.85310798 16.27937894 38.05880133 16.27610005 32.26445007 16.27010918 C27.82596484 16.26650414 23.38749068 16.26764188 18.94900513 16.27023697 C16.81185908 16.2709064 14.67471204 16.27007726 12.53756714 16.26775742 C9.55626749 16.26523184 6.57504395 16.26907014 3.59375 16.2746582 C2.70124542 16.27263397 1.80874084 16.27060974 0.88919067 16.26852417 C-3.02735788 15.89193664 -3.02735788 15.89193664 -6.31640625 17.40405273 Z " fill="#000000" transform="translate(104.31640625,-0.404052734375)"/>
<path d="M0 0 C1.53307549 -0.01292336 1.53307549 -0.01292336 3.09712219 -0.02610779 C6.46222548 -0.04873643 9.82649387 -0.04203409 13.19165039 -0.03295898 C15.5390294 -0.03819601 17.88640631 -0.04447278 20.23377991 -0.05174255 C25.14879268 -0.06214116 30.06351584 -0.05759289 34.97851562 -0.04296875 C41.26781216 -0.0257846 47.55619479 -0.04927562 53.84538937 -0.08445835 C58.69167603 -0.10645017 63.53774464 -0.10498639 68.38406563 -0.09669304 C70.70243901 -0.09587446 73.02082855 -0.10271988 75.3391552 -0.11746407 C78.58474281 -0.13494144 81.82869597 -0.12033904 85.07421875 -0.09765625 C86.50134689 -0.11519455 86.50134689 -0.11519455 87.95730591 -0.13308716 C94.31422162 -0.04298654 98.83200281 1.1838299 103.60180664 5.53344727 C107.27517027 9.92718892 108.10739075 14.25128383 108.13525391 19.90234375 C108.14386948 20.60252625 108.15248505 21.30270874 108.16136169 22.02410889 C108.18389754 24.31797208 108.17730636 26.61060111 108.16821289 28.90454102 C108.17345422 30.51205301 108.17973256 32.11956192 108.18699646 33.72706604 C108.19737791 37.08853678 108.19287232 40.4495836 108.17822266 43.81103516 C108.16104234 48.10286223 108.18453128 52.39334949 108.21971226 56.68502712 C108.24175261 60.00267786 108.24022881 63.32001131 108.23194695 66.63771248 C108.23113096 68.21924369 108.2379265 69.80079903 108.25271797 71.38226128 C108.38094155 87.57212013 108.38094155 87.57212013 102.60180664 93.53344727 C96.65005682 98.39201855 91.06647621 97.97470852 83.60180664 97.53344727 C83.65401367 99.3780957 83.65401367 99.3780957 83.70727539 101.26000977 C83.73542709 102.89280854 83.76272577 104.52562217 83.78930664 106.15844727 C83.81444336 106.96668945 83.83958008 107.77493164 83.86547852 108.60766602 C83.92751373 113.69455348 83.43375519 117.12744655 80.60180664 121.53344727 C76.9501527 124.91122716 74.34327396 126.36599849 69.35180664 126.84594727 C62.1619534 126.24679283 57.65574982 122.0539668 53.10180664 116.78344727 C52.39797852 115.99164063 52.39797852 115.99164063 51.67993164 115.18383789 C50.31191641 113.64106248 48.95653508 112.08788492 47.60180664 110.53344727 C46.89024414 109.73422852 46.17868164 108.93500977 45.44555664 108.11157227 C40.85324228 102.93548913 40.85324228 102.93548913 39.3026886 100.45617676 C37.77602721 98.35477458 37.77602721 98.35477458 35.45915222 98.04138184 C34.63119644 98.04456421 33.80324066 98.04774658 32.95019531 98.05102539 C32.00879196 98.04421753 31.06738861 98.03740967 30.09745789 98.03039551 C28.57400505 98.04737488 28.57400505 98.04737488 27.01977539 98.06469727 C25.44937248 98.05412292 25.44937248 98.05412292 23.84724426 98.04333496 C19.36385586 98.01378915 14.88089817 98.03046155 10.39746094 98.04272461 C7.12546851 98.04510753 3.85418041 98.02416847 0.58227539 98.00219727 C-0.42728714 98.01351685 -1.43684967 98.02483643 -2.477005 98.03649902 C-9.50303853 97.9861948 -12.95472486 96.87876465 -18.04272461 91.93579102 C-21.95810483 87.02519709 -22.5272963 83.90002995 -22.59106445 77.71044922 C-22.59924194 77.0206044 -22.60741943 76.33075958 -22.61584473 75.62001038 C-22.64065243 73.33725846 -22.65720536 71.05456868 -22.67163086 68.77172852 C-22.67695454 67.99012045 -22.68227821 67.20851238 -22.68776321 66.40321922 C-22.71447842 62.26377723 -22.73385598 58.12436518 -22.74829102 53.98486328 C-22.76161337 50.56759777 -22.7894358 47.1509318 -22.83032227 43.73388672 C-22.87977971 39.60008944 -22.90442817 35.46683461 -22.9115181 31.33275414 C-22.91820907 29.76234197 -22.9333749 28.19194088 -22.95740891 26.62169838 C-23.16967939 11.91044859 -23.16967939 11.91044859 -19.15713501 6.09660339 C-13.00401555 0.62837971 -7.97460088 -0.05458248 0 0 Z M-6.39819336 17.53344727 C-6.49745109 19.49169424 -6.5261875 21.45354624 -6.52758789 23.41430664 C-6.53074005 24.67231079 -6.53389221 25.93031494 -6.53713989 27.22644043 C-6.53535011 28.61002639 -6.53329916 29.99361204 -6.53100586 31.37719727 C-6.53167895 32.78584815 -6.53264901 34.19449893 -6.53390503 35.60314941 C-6.53538178 38.55893049 -6.53322819 41.5146814 -6.52856445 44.47045898 C-6.52286716 48.26719311 -6.52614629 52.06385655 -6.53213692 55.86058807 C-6.53574315 58.77041155 -6.53460366 61.68021815 -6.53200912 64.59004211 C-6.53134003 65.99034127 -6.53216768 67.39064194 -6.53448868 68.79093933 C-6.53701618 70.7448219 -6.53248369 72.69870982 -6.52758789 74.65258789 C-6.5267923 75.76653931 -6.5259967 76.88049072 -6.525177 78.02819824 C-6.68188708 80.47322187 -6.68188708 80.47322187 -5.39819336 81.53344727 C-3.95692776 81.64016399 -2.5105948 81.67963874 -1.06542969 81.69116211 C0.3168708 81.70655533 0.3168708 81.70655533 1.72709656 81.72225952 C2.73118057 81.72956085 3.73526459 81.73686218 4.76977539 81.74438477 C6.88111112 81.77246431 8.99243914 81.80112884 11.10375977 81.83032227 C14.44368181 81.87152862 17.78346155 81.90840104 21.12353516 81.93481445 C24.33925477 81.96247246 27.55431193 82.00835929 30.76977539 82.05688477 C32.26071968 82.06176407 32.26071968 82.06176407 33.78178406 82.06674194 C40.05475978 82.17761537 44.48350911 82.96199105 49.47290039 87.07641602 C50.24827148 87.89045898 50.24827148 87.89045898 51.03930664 88.72094727 C51.91329102 89.63553711 51.91329102 89.63553711 52.80493164 90.56860352 C56.65546186 94.7790746 60.42975098 99.01294263 63.91430664 103.53344727 C64.47118164 104.19344727 65.02805664 104.85344727 65.60180664 105.53344727 C66.26180664 105.53344727 66.92180664 105.53344727 67.60180664 105.53344727 C67.62758789 104.43645508 67.65336914 103.33946289 67.67993164 102.20922852 C67.73623354 100.75476278 67.79358041 99.30033723 67.85180664 97.84594727 C67.86598633 97.1247168 67.88016602 96.40348633 67.89477539 95.66040039 C68.11856765 90.75934989 68.91081096 88.06083498 72.60180664 84.53344727 C76.06667876 82.07571802 79.62979407 82.17353492 83.78930664 81.97094727 C88.01586782 82.13719812 88.01586782 82.13719812 91.60180664 80.53344727 C91.70106437 78.57520029 91.72980078 76.6133483 91.73120117 74.65258789 C91.73592941 72.76558167 91.73592941 72.76558167 91.74075317 70.8404541 C91.73896339 69.45686814 91.73691244 68.07328249 91.73461914 66.68969727 C91.73529223 65.28104638 91.73626229 63.8723956 91.73751831 62.46374512 C91.73899506 59.50796404 91.73684147 56.55221313 91.73217773 53.59643555 C91.72648045 49.79970142 91.72975957 46.00303798 91.7357502 42.20630646 C91.73935643 39.29648299 91.73821694 36.38667639 91.73562241 33.47685242 C91.73495331 32.07655326 91.73578096 30.67625259 91.73810196 29.2759552 C91.74062947 27.32207263 91.73609697 25.36818471 91.73120117 23.41430664 C91.73040558 22.30035522 91.72960999 21.18640381 91.72879028 20.03869629 C91.88550037 17.59367266 91.88550037 17.59367266 90.60180664 16.53344727 C87.62419294 16.43283456 84.66973497 16.39729834 81.69165039 16.40405273 C80.75676788 16.40230042 79.82188538 16.4005481 78.8586731 16.39874268 C75.75219902 16.39432253 72.64578135 16.39726272 69.53930664 16.40063477 C67.39078765 16.39996177 65.24226873 16.39899179 63.09375 16.3977356 C58.58438392 16.3962584 54.07503761 16.39841387 49.56567383 16.40307617 C43.77132087 16.40877347 37.97701422 16.40549458 32.18266296 16.39950371 C27.74417773 16.39589868 23.30570357 16.39703641 18.86721802 16.3996315 C16.73007197 16.40030093 14.59292493 16.39947179 12.45578003 16.39715195 C9.47448038 16.39462637 6.49325684 16.39846467 3.51196289 16.40405273 C2.61945831 16.4020285 1.72695374 16.40000427 0.80740356 16.3979187 C-3.10914499 16.02133117 -3.10914499 16.02133117 -6.39819336 17.53344727 Z " fill="#000000" transform="translate(318.398193359375,-0.533447265625)"/>
<path d="M0 0 C0.79566376 -0.00807175 1.59132751 -0.01614349 2.41110229 -0.02445984 C4.09728832 -0.0382878 5.78350219 -0.04901572 7.46972656 -0.05688477 C9.18237595 -0.06836929 10.89499054 -0.08876493 12.60742188 -0.1184082 C30.9477454 -0.43578232 30.9477454 -0.43578232 37.9296875 4.23828125 C38.73921875 4.76808594 39.54875 5.29789062 40.3828125 5.84375 C46.1009764 10.87822039 50.38215862 16.65510125 51.9296875 24.23828125 C52.0153066 26.04035631 52.04742808 27.84531113 52.04321289 29.64941406 C52.04309204 30.74527832 52.04297119 31.84114258 52.04284668 32.97021484 C52.03773071 34.11570801 52.03261475 35.26120117 52.02734375 36.44140625 C52.02633667 37.4989209 52.02532959 38.55643555 52.02429199 39.64599609 C52.01906303 43.59343552 52.00510176 47.54085948 51.9921875 51.48828125 C51.9715625 60.31578125 51.9509375 69.14328125 51.9296875 78.23828125 C24.8696875 78.23828125 -2.1903125 78.23828125 -30.0703125 78.23828125 C-30.1528125 69.53453125 -30.2353125 60.83078125 -30.3203125 51.86328125 C-30.35672852 49.1351416 -30.39314453 46.40700195 -30.43066406 43.59619141 C-30.44235883 41.4065835 -30.45254878 39.21696682 -30.4609375 37.02734375 C-30.48140137 35.91254639 -30.50186523 34.79774902 -30.52294922 33.64916992 C-30.5274503 23.45197151 -28.04383332 15.48702971 -21.0078125 7.99609375 C-14.50430919 2.09573792 -8.70869005 0.08402489 0 0 Z " fill="#0491F9" transform="translate(245.0703125,417.76171875)"/>
<path d="M0 0 C2.27606305 0.02148381 4.54898264 0.00009669 6.82495117 -0.02539062 C14.64373958 -0.04056465 21.39524989 0.27849965 28.21362305 4.52148438 C29.0231543 4.99070313 29.83268555 5.45992187 30.66674805 5.94335938 C36.3097419 10.11426787 39.98304768 14.82975827 42.21362305 21.52148438 C42.21362305 33.40148437 42.21362305 45.28148437 42.21362305 57.52148438 C15.81362305 57.52148438 -10.58637695 57.52148438 -37.78637695 57.52148438 C-37.78637695 16.77572166 -37.78637695 16.77572166 -29.09887695 7.64648438 C-20.17874814 0.63546819 -10.9700072 -0.12319196 0 0 Z " fill="#0492FA" transform="translate(253.786376953125,183.478515625)"/>
<path d="M0 0 C7.76974746 3.94057085 14.51516494 10.04549483 17.3125 18.4375 C18.59117961 34.69499787 18.59117961 34.69499787 13.9921875 41.4765625 C8.17872373 48.26344346 2.20322353 53.5746187 -6.87109375 54.7109375 C-15.26390409 55.08912306 -22.38651817 52.40347745 -28.8984375 47.17578125 C-34.82605809 41.4164119 -37.71036397 34.30364335 -38.0625 26.125 C-37.89364736 18.34722546 -34.92420857 11.77849186 -29.63671875 6.078125 C-20.93458087 -1.24631971 -10.76699551 -4.22198968 0 0 Z " fill="#F8BA7E" transform="translate(420.6875,165.5625)"/>
<path d="M0 0 C6.7457358 4.17170504 10.52783052 10.58349157 13 18 C14.15208863 27.31879288 12.20518892 34.22107021 7 42 C2.09848594 47.93906083 -4.99691144 51.24800203 -12.546875 52.3828125 C-20.74058837 52.76450722 -26.94924301 49.88614327 -33.25 44.8125 C-39.13609198 39.20894044 -42.15085705 34.36575353 -42.53881836 26.06396484 C-42.64257953 16.74685368 -40.96758585 10.95619335 -34.5625 4.1875 C-24.08670642 -5.6196259 -12.58285744 -6.1198443 0 0 Z " fill="#F8BA7E" transform="translate(116,168)"/>
<path d="M0 0 C6.44778109 4.05830928 11.69724232 8.78269707 13.9921875 16.25390625 C15.20977883 24.42442117 15.42998301 33.36788229 10.609375 40.39453125 C5.05838504 46.77682888 -0.60733103 51.66704074 -9.20703125 52.6015625 C-18.59548343 52.99739994 -25.24231614 51.5387799 -32.29296875 45.19921875 C-38.26599835 38.93349986 -41.04879317 33.45572129 -41.4453125 24.81640625 C-41.16821476 16.45729101 -37.72832699 10.07754448 -32.0390625 4.05078125 C-23.00375415 -3.94199152 -10.80546227 -5.67979427 0 0 Z " fill="#F8BB7E" transform="translate(267.0078125,335.74609375)"/>
<path d="M0 0 C6.57271929 3.80697107 12.40346066 9.68612667 14.625 17.0625 C15.63486312 27.44295343 14.47314982 35.01540743 8.875 43.8125 C2.92213322 49.76536678 -4.10942513 53.02233424 -12.5 53.5625 C-20.05051014 53.40798751 -26.5839788 50.25333949 -32.32421875 45.421875 C-37.63851895 39.69260426 -40.5524932 33.04068665 -41 25.25 C-40.6870816 17.33619279 -37.73683351 10.49624439 -32.18359375 4.82421875 C-23.11716195 -2.58540318 -10.96545486 -4.92257262 0 0 Z " fill="#F8BB7E" transform="translate(266.375,101.9375)"/>
<path d="M0 0 C1.22404541 -0.00478363 2.44809082 -0.00956726 3.70922852 -0.01449585 C6.2947722 -0.01789528 8.88035884 -0.00869013 11.46582031 0.01220703 C15.42350096 0.03896784 19.37834508 0.01245625 23.3359375 -0.01953125 C25.84896459 -0.01622716 28.36198992 -0.00982097 30.875 0 C32.05843994 -0.01012115 33.24187988 -0.02024231 34.46118164 -0.03067017 C43.58840423 0.09955468 43.58840423 0.09955468 46.69140625 3.01416016 C48.82610296 6.25381314 49.0857867 7.85537812 48.4375 11.6640625 C46.65765595 14.7999782 45.91441793 15.50508986 42.4375 16.6640625 C40.66989846 16.77669994 38.89846766 16.83309239 37.12744141 16.85693359 C35.50027695 16.88102798 35.50027695 16.88102798 33.84024048 16.90560913 C28.8892685 16.95007066 23.93842948 16.99110559 18.98730469 17.01416016 C16.37425849 17.03073957 13.761258 17.05805518 11.1484375 17.09619141 C7.38257299 17.15087252 3.61777017 17.17282005 -0.1484375 17.1875 C-1.31627777 17.21016937 -2.48411804 17.23283875 -3.68734741 17.25619507 C-11.77440647 17.23507068 -11.77440647 17.23507068 -15.79931641 14.31884766 C-17.5625 11.6640625 -17.5625 11.6640625 -18.1875 8.6640625 C-17.54400013 5.5752631 -16.72804859 3.88497284 -14.42773438 1.71612549 C-10.13269046 -0.70644231 -4.78994887 -0.04096517 0 0 Z " fill="#010100" transform="translate(345.5625,26.3359375)"/>
<path d="M0 0 C1.10794922 -0.00615326 2.21589844 -0.01230652 3.35742188 -0.01864624 C5.1450293 0.00291031 5.1450293 0.00291031 6.96875 0.02490234 C8.81049805 0.02627701 8.81049805 0.02627701 10.68945312 0.02767944 C13.28519558 0.03372094 15.88093088 0.04948315 18.4765625 0.07421875 C22.45338587 0.11069891 26.42927688 0.11523829 30.40625 0.11474609 C32.9270914 0.12457811 35.44792648 0.13623548 37.96875 0.14990234 C39.16048828 0.15212799 40.35222656 0.15435364 41.58007812 0.15664673 C42.68802734 0.16940643 43.79597656 0.18216614 44.9375 0.1953125 C45.91138672 0.2029361 46.88527344 0.21055969 47.88867188 0.21841431 C50.60376412 0.49983408 52.19642806 0.99248502 54.46875 2.48583984 C56.46875 5.48583984 56.46875 5.48583984 56.28125 8.98583984 C55.4971584 12.36346519 55.20050021 13.51897969 52.46875 15.48583984 C49.90189846 16.76926562 48.03873934 16.63392091 45.16455078 16.6628418 C43.50240036 16.68209465 43.50240036 16.68209465 41.80667114 16.70173645 C40.60461029 16.70912338 39.40254944 16.71651031 38.1640625 16.72412109 C36.93340057 16.73219284 35.70273865 16.74026459 34.43478394 16.74858093 C31.82714247 16.76243016 29.21948281 16.77314854 26.61181641 16.78100586 C23.93645519 16.78987545 21.26161178 16.81076932 18.58642578 16.8425293 C14.73714414 16.88503524 10.88854918 16.9013519 7.0390625 16.91162109 C5.84105011 16.92912918 4.64303772 16.94663727 3.40872192 16.9646759 C2.29431732 16.96175034 1.17991272 16.95882477 0.03173828 16.95581055 C-0.94818085 16.96167679 -1.92809998 16.96754303 -2.93771362 16.97358704 C-6.26042762 16.34870881 -7.44114476 15.08449788 -9.53125 12.48583984 C-10.0625 10.48583984 -10.0625 10.48583984 -10.03125 8.48583984 C-10.04671875 7.49583984 -10.04671875 7.49583984 -10.0625 6.48583984 C-8.67469663 1.26116835 -4.96318879 -0.01452455 0 0 Z " fill="#010100" transform="translate(123.53125,26.51416015625)"/>
<path d="M0 0 C1.20560326 -0.00574036 1.20560326 -0.00574036 2.43556213 -0.01159668 C4.1325913 -0.01431418 5.82966246 -0.00696418 7.52661133 0.00976562 C10.11700447 0.03115174 12.7046156 0.00997529 15.29492188 -0.015625 C16.94662068 -0.01298114 18.59831776 -0.00785497 20.25 0 C21.02097519 -0.00809692 21.79195038 -0.01619385 22.58628845 -0.02453613 C26.27112695 0.03932933 28.5109748 0.42198849 31.68774414 2.34570312 C33.69140625 4.53125 33.69140625 4.53125 34.19140625 8.03125 C33.68158999 11.59996381 33.25474196 13.06285265 30.69140625 15.53125 C26.9895103 16.76521532 23.52249263 16.73200022 19.6640625 16.76953125 C18.48607338 16.78163887 18.48607338 16.78163887 17.2842865 16.79399109 C15.62419836 16.80781013 13.96408206 16.81854202 12.30395508 16.82641602 C9.76654468 16.84366409 7.23042599 16.88757125 4.69335938 16.93164062 C3.07943665 16.94176513 1.46550287 16.95028199 -0.1484375 16.95703125 C-0.90583725 16.97453934 -1.663237 16.99204742 -2.44358826 17.01008606 C-5.99650233 16.99546191 -7.92699255 16.82423095 -10.78540039 14.62963867 C-12.43460481 12.35765407 -12.85193486 11.30508074 -12.80859375 8.53125 C-12.8240625 7.54125 -12.8240625 7.54125 -12.83984375 6.53125 C-11.10978341 0.01808167 -5.77405558 -0.0604814 0 0 Z " fill="#020200" transform="translate(360.30859375,53.46875)"/>
<path d="M0 0 C1.20560326 -0.00574036 1.20560326 -0.00574036 2.43556213 -0.01159668 C4.1325913 -0.01431418 5.82966246 -0.00696418 7.52661133 0.00976562 C10.11700447 0.03115174 12.7046156 0.00997529 15.29492188 -0.015625 C16.94662068 -0.01298114 18.59831776 -0.00785497 20.25 0 C21.02097519 -0.00809692 21.79195038 -0.01619385 22.58628845 -0.02453613 C26.27162304 0.03933793 28.50650664 0.41874838 31.67993164 2.34960938 C33.69140625 4.53125 33.69140625 4.53125 34.31640625 7.96875 C33.52105205 12.50226895 32.29765949 13.72082482 28.69140625 16.53125 C25.76045401 17.01892453 23.42481469 17.21207028 20.50390625 17.16015625 C19.33371948 17.16377419 19.33371948 17.16377419 18.13989258 17.16746521 C16.49587911 17.16648878 14.85183193 17.15314372 13.20800781 17.12817383 C10.69872801 17.09385015 8.19297047 17.10752537 5.68359375 17.12695312 C4.08201634 17.12005426 2.48044797 17.1103815 0.87890625 17.09765625 C0.13294189 17.10261612 -0.61302246 17.10757599 -1.3815918 17.11268616 C-6.28524099 17.00241576 -8.88484502 16.05971061 -12.30859375 12.53125 C-12.9375 10.53125 -12.9375 10.53125 -12.87109375 8.53125 C-12.87238281 7.87125 -12.87367187 7.21125 -12.875 6.53125 C-11.03769197 0.043652 -5.82187026 -0.06098225 0 0 Z " fill="#020200" transform="translate(126.30859375,53.46875)"/>
<path d="M0 0 C3.07988772 3.07988772 3.41833556 3.49154811 3.8125 7.5 C3.90144531 8.2734375 3.99039063 9.046875 4.08203125 9.84375 C4 12 4 12 2 15 C1.34 15 0.68 15 0 15 C0 10.05 0 5.1 0 0 Z " fill="#D3AF00" transform="translate(122,90)"/>
</svg>
